<svg viewBox="0 0 547 86" fill="none" xmlns="http://www.w3.org/2000/svg">
<path d="M0.658907 84V-5.72205e-06H16.8589V71.4H53.6989V84H0.658907ZM71.573 84V-5.72205e-06H126.773V13.08H87.773V35.04H123.173V47.64H87.773V70.92H126.773V84H71.573ZM145.534 84V-5.72205e-06H200.734V13.08H161.734V35.04H197.134V47.64H161.734V70.92H200.734V84H145.534ZM272.415 84V-5.72205e-06H288.615V84H272.415ZM219.495 84V-5.72205e-06H235.695V84H219.495ZM233.415 47.64V34.56H275.175V47.64H233.415ZM330.879 84V54.48L302.559 -5.72205e-06H320.919L340.719 41.52H337.479L357.159 -5.72205e-06H375.399L347.079 54.48V84H330.879ZM421.851 85.44C415.691 85.44 410.091 84.2 405.051 81.72C400.011 79.24 396.011 75.52 393.051 70.56C390.091 65.6 388.611 59.28 388.611 51.6V-5.72205e-06H404.811V51.72C404.811 55.88 405.491 59.4 406.851 62.28C408.211 65.08 410.171 67.16 412.731 68.52C415.371 69.88 418.491 70.56 422.091 70.56C425.771 70.56 428.891 69.88 431.451 68.52C434.091 67.16 436.091 65.08 437.451 62.28C438.811 59.4 439.491 55.88 439.491 51.72V-5.72205e-06H455.691V51.6C455.691 59.28 454.171 65.6 451.131 70.56C448.091 75.52 443.971 79.24 438.771 81.72C433.651 84.2 428.011 85.44 421.851 85.44ZM475.479 84V-5.72205e-06H491.679L530.319 57.96V-5.72205e-06H546.519V84H530.319L491.679 26.16V84H475.479Z" fill="white"/>
</svg>
