<svg viewBox="0 0 547 120" fill="none" xmlns="http://www.w3.org/2000/svg">
<path d="M422.614 119.384C420.971 119.384 419.542 119.085 418.326 118.488C417.11 117.891 416.171 117.059 415.51 115.992C414.849 114.925 414.518 113.688 414.518 112.28H417.334C417.334 113.155 417.537 113.965 417.942 114.712C418.347 115.437 418.934 116.024 419.702 116.472C420.491 116.899 421.462 117.112 422.614 117.112C423.617 117.112 424.47 116.952 425.174 116.632C425.899 116.291 426.443 115.832 426.806 115.256C427.19 114.68 427.382 114.029 427.382 113.304C427.382 112.429 427.19 111.725 426.806 111.192C426.443 110.637 425.942 110.189 425.302 109.848C424.662 109.507 423.915 109.208 423.062 108.952C422.23 108.675 421.355 108.387 420.438 108.088C418.667 107.491 417.366 106.744 416.534 105.848C415.702 104.952 415.286 103.789 415.286 102.36C415.286 101.144 415.563 100.077 416.118 99.16C416.694 98.2427 417.505 97.528 418.55 97.016C419.617 96.4827 420.875 96.216 422.326 96.216C423.755 96.216 424.993 96.4827 426.038 97.016C427.105 97.5493 427.937 98.2853 428.534 99.224C429.131 100.141 429.43 101.208 429.43 102.424H426.614C426.614 101.805 426.454 101.197 426.134 100.6C425.814 100.003 425.323 99.512 424.662 99.128C424.022 98.7227 423.211 98.52 422.23 98.52C421.419 98.4987 420.694 98.6373 420.054 98.936C419.435 99.2133 418.945 99.6187 418.582 100.152C418.241 100.685 418.07 101.336 418.07 102.104C418.07 102.829 418.219 103.416 418.518 103.864C418.838 104.312 419.286 104.696 419.862 105.016C420.459 105.315 421.153 105.592 421.942 105.848C422.731 106.104 423.606 106.392 424.566 106.712C425.654 107.075 426.614 107.523 427.446 108.056C428.299 108.568 428.961 109.229 429.43 110.04C429.921 110.851 430.166 111.885 430.166 113.144C430.166 114.211 429.878 115.224 429.302 116.184C428.747 117.123 427.915 117.891 426.806 118.488C425.697 119.085 424.299 119.384 422.614 119.384ZM442.608 119V110.488L435.312 96.6H438.352L444.368 108.728H443.568L449.552 96.6H452.56L445.296 110.488V119H442.608ZM465.489 119.384C463.846 119.384 462.417 119.085 461.201 118.488C459.985 117.891 459.046 117.059 458.385 115.992C457.724 114.925 457.393 113.688 457.393 112.28H460.209C460.209 113.155 460.412 113.965 460.817 114.712C461.222 115.437 461.809 116.024 462.577 116.472C463.366 116.899 464.337 117.112 465.489 117.112C466.492 117.112 467.345 116.952 468.049 116.632C468.774 116.291 469.318 115.832 469.681 115.256C470.065 114.68 470.257 114.029 470.257 113.304C470.257 112.429 470.065 111.725 469.681 111.192C469.318 110.637 468.817 110.189 468.177 109.848C467.537 109.507 466.79 109.208 465.937 108.952C465.105 108.675 464.23 108.387 463.313 108.088C461.542 107.491 460.241 106.744 459.409 105.848C458.577 104.952 458.161 103.789 458.161 102.36C458.161 101.144 458.438 100.077 458.993 99.16C459.569 98.2427 460.38 97.528 461.425 97.016C462.492 96.4827 463.75 96.216 465.201 96.216C466.63 96.216 467.868 96.4827 468.913 97.016C469.98 97.5493 470.812 98.2853 471.409 99.224C472.006 100.141 472.305 101.208 472.305 102.424H469.489C469.489 101.805 469.329 101.197 469.009 100.6C468.689 100.003 468.198 99.512 467.537 99.128C466.897 98.7227 466.086 98.52 465.105 98.52C464.294 98.4987 463.569 98.6373 462.929 98.936C462.31 99.2133 461.82 99.6187 461.457 100.152C461.116 100.685 460.945 101.336 460.945 102.104C460.945 102.829 461.094 103.416 461.393 103.864C461.713 104.312 462.161 104.696 462.737 105.016C463.334 105.315 464.028 105.592 464.817 105.848C465.606 106.104 466.481 106.392 467.441 106.712C468.529 107.075 469.489 107.523 470.321 108.056C471.174 108.568 471.836 109.229 472.305 110.04C472.796 110.851 473.041 111.885 473.041 113.144C473.041 114.211 472.753 115.224 472.177 116.184C471.622 117.123 470.79 117.891 469.681 118.488C468.572 119.085 467.174 119.384 465.489 119.384ZM485.632 119V98.808H478.944V96.6H495.008V98.808H488.32V119H485.632ZM502.322 119V96.6H516.178V98.808H505.01V106.616H515.218V108.792H505.01V116.792H516.178V119H502.322ZM524.416 119V96.6H527.552L535.456 112.248L543.392 96.6H546.56V119H543.872V101.4L536.48 115.864H534.464L527.104 101.464V119H524.416Z" fill="white"/>
<path d="M0.658907 84V-5.72205e-06H16.8589V71.4H53.6989V84H0.658907ZM71.573 84V-5.72205e-06H126.773V13.08H87.773V35.04H123.173V47.64H87.773V70.92H126.773V84H71.573ZM145.534 84V-5.72205e-06H200.734V13.08H161.734V35.04H197.134V47.64H161.734V70.92H200.734V84H145.534ZM272.415 84V-5.72205e-06H288.615V84H272.415ZM219.495 84V-5.72205e-06H235.695V84H219.495ZM233.415 47.64V34.56H275.175V47.64H233.415ZM330.879 84V54.48L302.559 -5.72205e-06H320.919L340.719 41.52H337.479L357.159 -5.72205e-06H375.399L347.079 54.48V84H330.879ZM421.851 85.44C415.691 85.44 410.091 84.2 405.051 81.72C400.011 79.24 396.011 75.52 393.051 70.56C390.091 65.6 388.611 59.28 388.611 51.6V-5.72205e-06H404.811V51.72C404.811 55.88 405.491 59.4 406.851 62.28C408.211 65.08 410.171 67.16 412.731 68.52C415.371 69.88 418.491 70.56 422.091 70.56C425.771 70.56 428.891 69.88 431.451 68.52C434.091 67.16 436.091 65.08 437.451 62.28C438.811 59.4 439.491 55.88 439.491 51.72V-5.72205e-06H455.691V51.6C455.691 59.28 454.171 65.6 451.131 70.56C448.091 75.52 443.971 79.24 438.771 81.72C433.651 84.2 428.011 85.44 421.851 85.44ZM475.479 84V-5.72205e-06H491.679L530.319 57.96V-5.72205e-06H546.519V84H530.319L491.679 26.16V84H475.479Z" fill="white"/>
</svg>
